<svg xmlns="http://www.w3.org/2000/svg" viewBox="0 0 841.89 841.89"><defs><style>.cls-1{font-size:145.18px;fill:#fff;font-family:Roboto-Thin, Roboto;font-weight:200;}.cls-2{letter-spacing:0.01em;}.cls-3{letter-spacing:-0.03em;}.cls-4{fill:#a3d05e;}.cls-5{fill:#6dbf4a;}</style></defs><g id="Laag_2" data-name="Laag 2"><text class="cls-1" transform="translate(12.51 635.62) scale(1.11 1)"><tspan class="cls-2">L</tspan><tspan class="cls-3" x="81.45" y="0">A</tspan><tspan x="163.25" y="0">WNS</tspan></text></g><g id="Laag_1" data-name="Laag 1"><path class="cls-4" d="M629,635.62h-22.6s-22.6-206.94-146.89-178.4c0,0,96.34-50,153.43,99.31,0,0,21.41-211.7-53.52-318.15,0,0,85,105.75,69.58,302.64,0,0,35.08-143.27,151.64-154.57C780.62,386.45,644.44,413.81,629,635.62Z"/></g><g id="Laag_3" data-name="Laag 3"><path class="cls-5" d="M629,635.62S640.87,509,571.29,428.08c0,0,67.2,69.43,80.88,155.21,0,0,0-225.68-138.56-377,0,0,117.75,72,165.32,378.21,0,0,19.48-191.93,93.51-289.16,0,0-67.94,128.3-67.34,289.9,0,0,41-141.68,124.28-41.18,0,0-106.15-89.5-111.2,91.58Z"/></g></svg>